<?xml version="1.0" encoding="utf-8"?>
<!-- Generator: Adobe Illustrator 16.0.0, SVG Export Plug-In . SVG Version: 6.00 Build 0)  -->
<!DOCTYPE svg PUBLIC "-//W3C//DTD SVG 1.0//EN" "http://www.w3.org/TR/2001/REC-SVG-20010904/DTD/svg10.dtd">
<svg version="1.0" id="Layer_1" xmlns="http://www.w3.org/2000/svg" xmlns:xlink="http://www.w3.org/1999/xlink" x="0px" y="0px"
	 width="300px" height="300px" viewBox="0 0 300 300" enable-background="new 0 0 300 300" xml:space="preserve">
<g>
	<path fill="#FFFFFF" d="M239.747,113.672c-2.23,0-5.574,1.115-5.574,2.23s0,5.575,0,7.804c0,2.23-3.346,6.131-7.247,6.131
		c-3.902,0-6.132-2.787-6.132-5.017c0-2.229,0-15.608,0-20.067c0-4.459-4.46-4.459-6.689-4.459c-2.23,0-4.46,1.115-4.46,4.459
		c0,3.344-1.114,8.918-7.803,8.918c-3.345,0-6.69-2.229-6.69-4.459c0-2.229,0-25.642,0-30.101s-4.459-5.574-7.804-5.574
		s-5.574,3.344-5.574,4.459c0,1.115,0,8.918,0,13.378c0,4.459-3.344,5.574-6.688,5.574s-5.574-2.229-5.574-4.459
		c0-2.229,0-27.872,0-32.331c0-4.459-3.346-5.575-6.69-5.575c-3.344,0-6.688,2.23-6.688,4.46c0,2.23,0,26.756,0,30.102
		c0,3.344-4.46,4.459-6.689,4.459s-5.574-1.115-5.574-3.345s0-11.149,0-14.494c0-3.344-4.459-4.459-6.689-4.459
		c-2.23,0-6.689,1.115-6.689,4.459c0,3.345,0,17.838,0,22.297c0,4.459-4.459,5.575-6.689,5.575c-2.229,0-5.574,0-5.574-4.459
		c0-1.115,0-27.872,0-31.216s-4.46-4.459-6.689-4.459s-6.689,2.229-6.689,5.574s0,35.676,0,41.25s-3.345,7.804-5.574,7.804
		c-2.23,0-6.689-2.229-6.689-5.574s0-11.148,0-14.493c0-3.344-3.344-5.574-6.689-5.574c-3.344,0-6.689,3.345-6.689,5.574
		c0,2.23,0,28.987,0,33.446s-2.229,5.574-6.689,5.574s-5.574-5.574-5.574-5.574s0-7.804,0-12.264c0-4.459-4.459-5.574-7.804-5.574
		c-3.344,0-5.574,2.23-5.574,5.574c0,3.345,0,121.52,0,121.52l95.878,55.744l96.993-55.744c0,0,0-115.945,0-121.52
		C246.436,113.672,241.977,113.672,239.747,113.672z M194.037,220.886h-28.058v-22.854h-33.074v22.854h-28.058v-70.423h28.058
		v23.971h33.074v-23.971h28.058V220.886z"/>
	<path fill="#FFFFFF" d="M137.179,61.274c2.229,0,5.574-1.115,5.574-3.345s0-20.068,0-24.527c0-2.229-2.23-4.459-5.574-4.459
		c-3.345,0-6.689,2.229-6.689,4.459c0,0,0,22.298,0,24.527S134.949,61.274,137.179,61.274z"/>
	<path fill="#FFFFFF" d="M163.936,44.551c2.229,0,5.575-1.115,5.575-3.344s0-20.067,0-24.527c0-2.229-2.231-4.459-5.575-4.459
		c-3.345,0-6.688,2.23-6.688,4.459c0,0,0,22.298,0,24.527S161.706,44.551,163.936,44.551z"/>
	<circle fill="#FFFFFF" cx="188.462" cy="59.044" r="6.689"/>
	<circle fill="#FFFFFF" cx="137.179" cy="12.22" r="6.689"/>
</g>
</svg>
