<?xml version="1.0" encoding="utf-8"?>
<!-- Generator: Adobe Illustrator 22.0.1, SVG Export Plug-In . SVG Version: 6.00 Build 0)  -->
<svg version="1.1" id="icon" xmlns="http://www.w3.org/2000/svg" xmlns:xlink="http://www.w3.org/1999/xlink" x="0px" y="0px"
	 viewBox="0 0 700 700" style="enable-background:new 0 0 700 700;" xml:space="preserve">
<style type="text/css">
	.st0{display:none;}
	.st1{display:inline;fill:#FFFFFF;}
	.st2{display:inline;}
	.st3{fill:#FFFFFF;}
	.st4{display:none;fill:#FFFFFF;}
</style>
<g id="PP" class="st0">
	<path class="st1" d="M287.6,153c0,0.6-0.7,0.7-0.9,0.1c-6.7-29.4-67.7-152-74-149.6c-7.2,2.5,6,128.5,15.6,165.6
		c0.1,0.6-0.6,0.7-0.9,0.3c-42.5-67.8-91.5-66.5-100.9-65.1c-0.6,0.1-0.6,0.9-0.1,1c58.7,30.2,87,116.7,89.7,125.2
		c0.1,0.3,0.4,0.4,0.9,0.3c32.6-19.8,70.1-32.3,110.2-35.9c0.3,0,0.6-0.3,0.4-0.6c-1.8-7.6-18.7-87,13.8-142.1
		c0.3-0.4-0.1-1-0.6-0.9C332.3,54.2,289.4,79.8,287.6,153z"/>
	<g class="st2">
		<path class="st3" d="M215,429.2c-2.8-1.7-7.9-2.5-15.3-2.5h-6.8v26h7.6c6,0,10.2-0.4,12.5-1.3s4.2-2.3,5.5-4.3s2-4.4,2-7.2
			C220.7,435,218.8,431.5,215,429.2z"/>
		<polygon class="st3" points="378.9,480.2 412.7,480.2 395.9,436.8 		"/>
		<path class="st3" d="M350,207.1c-134.9,0-244.7,109.8-244.7,244.7S215.1,696.5,350,696.5s244.7-109.8,244.7-244.7
			S484.9,207.1,350,207.1z M338.1,291c10.2-27.2,50.2-37.3,89.2-22.6c39,14.7,62.3,48.6,52.1,75.8c-10.2,27.2-50.2,37.3-89.2,22.6
			C351.2,352.1,327.9,318.1,338.1,291z M237,462c-4.6,5.8-10.9,9.9-18.8,12.2c-4.6,1.3-13.1,2-25.4,2v53.5h-24.1V403.3h25.5
			c13.8,0,23.8,1.3,29.9,3.8c6.1,2.6,10.9,6.7,14.4,12.4c3.5,5.7,5.3,12.5,5.3,20.5C243.9,448.8,241.6,456.1,237,462z M326.6,529.7
			h-59.1V403.3h24.1v103.5h35.1v22.9H326.6z M431.5,529.7l-9.9-26H370l-10.3,26h-25l48.8-126.4h24.4l48.6,126.4H431.5z M504.7,474.9
			v54.7h-24.2v-54.7l-37.2-71.7h25.8l23.6,45.5l23.5-45.5h25.5L504.7,474.9z"/>
	</g>
</g>
<g id="Habanero" class="st0">
	<path class="st1" d="M554.3,255.3c-2.9,2.9-5.4,9.2-5.4,11.2s0,14.1,0,19.5c0,4.9-6.8,14.1-16.5,14.1s-14.1-6.8-14.1-11.7
		c0-4.9,0-35.5,0-47.2c0-9.2-9.2-9.2-16.5-9.2s-9.2,2.4-9.2,9.2s-2.4,20.9-19.5,20.9c-6.8,0-16.5-4.9-16.5-9.2c0-4.4,0-58.9,0-71
		c0-9.2-9.2-14.1-19.5-14.1c-9.2,0-14.1,6.8-14.1,9.2s0,20.9,0,31.1c0,9.2-6.8,14.1-16.5,14.1s-14.1-4.9-14.1-9.2
		c0-4.4,0-66.6,0-75.9s-6.8-14.1-16.5-14.1c-9.2,0-16.5,4.9-16.5,9.2c0,4.9,0,64.2,0,71s-11.2,9.2-18.5,9.2
		c-4.9,0-14.1-2.4-14.1-6.8s0-26.3,0-33.1s-9.2-9.2-16.5-9.2c-4.9,0-16.5,2.4-16.5,9.2s0,42.8,0,52s-9.2,14.1-16.5,14.1
		c-4.9,0-14.1,0-14.1-9.2c0-2.4,0-66.6,0-73.5c0-6.8-9.2-9.2-16.5-9.2c-4.9,0-16.5,4.9-16.5,14.1s0,83.2,0,96.8
		c0,14.1-6.8,19.5-14.1,19.5c-4.9,0-16.5-4.9-16.5-14.1c0-6.8,0-26.3,0-33.1s-6.8-14.1-16.5-14.1s-16.5,6.8-16.5,14.1
		c0,4.9,0,69.1,0,78.3c0,9.2-4.9,14.1-16.5,14.1c-9.2,0-14.1-14.1-14.1-14.1s0-19.5,0-28.7s-9.2-14.1-19.5-14.1s-9.7,2.9-9.7,13.1
		c0,6.8,0,287,0,287L332,696l261.7-128.4c0,0,0-284.1,0-298.2C589.3,253.3,569.4,240.2,554.3,255.3z M457,513.1h-66.6v-54.5h-78.3
		v54.5h-66.6V347.2h66.6v57.4h78.3v-57.4H457V513.1z"/>
	<path class="st1" d="M321.3,138.5c4.9,0,14.1-2.4,14.1-6.8c0-4.9,0-47.2,0-57.4c0-4.9-4.9-9.2-14.1-9.2s-16.5,4.9-16.5,9.2
		c0,0,0,52,0,57.4C304.8,136.6,316.4,138.5,321.3,138.5z"/>
	<path class="st1" d="M385.5,98.7c4.9,0,14.1-2.4,14.1-6.8c0-4.9,0-47.2,0-57.4c0-4.9-4.9-9.2-14.1-9.2S369,30.2,369,34.5
		c0,0,0,52,0,57.4C368.5,96.7,378.7,98.7,385.5,98.7z"/>
	<circle class="st1" cx="442.4" cy="134.2" r="16.5"/>
	<circle class="st1" cx="321.3" cy="22.8" r="16.5"/>
</g>
<path id="playstar" class="st4" d="M476.4,402.9L700,240.4l-8,3.9c-18.4-2.4-191.5-9-265.2-11.3c-10-0.3-13.7-4.1-16.8-13
	c-17.7-51-36.1-101.8-54.3-152.7c-3.8-12.2-12.3-37.9-12.3-37.9s-6.2,20.4-8,25.4c-9.5,26.5-18.1,53.3-28.1,79.7
	c-11.6,30.6-19.4,62.5-34.2,91.8c-87.6-3.7-175.3-7.3-264.8-11.1c5.6,8.9,144.9,119.5,208.8,171.2c-0.5,3.4-0.5,6.9-1.6,10.1
	c-17.8,51.1-35.8,102.1-53.8,153.2c-12.7,36.2-25.4,72.3-38.1,108.6c0.2,0.1,0.4,0.1,0.6,0.1l-0.4,0.8l0.9-0.7
	c4.3,0.8,6.1-1.4,8.2-2.9c52.9-38.9,105.7-78.1,158.9-116.6c19.9-14.4,38.1-31.4,60.7-42c33.5,26.7,66.9,53.5,100.4,80.2
	c37.8,31.2,75.7,62.3,113.5,93.5c-7.2-32.2-17.7-61.9-28.1-91.6C517.5,520.3,497,461.6,476.4,402.9z M436.2,261.9
	c74-4.7,179.9-12.1,254.7-17.1L639.5,270c-2-0.5-5.8,2.7-8,3.7c-43.2,21.1-86.6,42.1-129.6,63.7l-34.7,17c-7.5,2.2-10.5-1.3-13.6-11
	c-7.5-23.6-16.1-46.8-24.8-70C425.8,265.4,427.2,262.5,436.2,261.9z M277.6,338.6c11-22.6,21.2-45.6,33.2-67.7
	c4.3-7.9,20.1-41.5,39-78.2c3.7,14.6,6.6,25.9,9.5,37.1c2.6,12.4,11,41.3,11.7,43.7c10.9,37.4,21.5,74.9,32.1,112.4l-30.3,14.8
	c-5,0.2-9.4-2.3-13.9-4.7c-27.4-14.2-54.9-28.2-82.4-42.4C270.6,348.3,275.3,343.4,277.6,338.6z M148.5,288.6
	c-2.7-1.3-4.9-2.9-3.9-6.4c-0.4,0-0.9,0-1.3,0c0.4,0,0.9,0,1.3,0c38-2.4,76.1-4.8,114.1-7.2c-5.2,14.5-10.2,29-15.6,43.4
	c-1.9,5-1.7,11.9-9.3,12.9C205.4,317.1,177,302.8,148.5,288.6z M245,410.2c12.7,11.6,29.4,18.8,38.5,34.4l-73,35.8
	C219.9,455.9,231.4,432.5,245,410.2z"/>
<g id="ttg" class="st0">
	<polygon class="st1" points="597.3,693.4 349.1,693.4 349.1,694.3 602.6,694.3 602.6,5.7 597.3,5.7 	"/>
	<polygon class="st1" points="349.1,70.2 547.5,158 547.5,295.7 427.4,255.6 427.4,630.5 349.1,630.5 349.1,693.4 597.3,693.4 
		597.3,5.7 349.1,5.7 	"/>
	<polygon class="st1" points="349.1,70.2 348.7,70 345.2,72.2 345.2,71.6 149.8,159.7 149.8,295.7 270.4,255.6 270.4,630.5 
		345.2,630.5 349.1,630.5 	"/>
	<polygon class="st1" points="348.7,70 345.2,71.6 345.2,72.2 	"/>
	<path class="st1" d="M95.7,4v692h508.5V4H95.7z M602.6,694.3H349.1v0.9H96.6V4.9h248.6h4h248.1v0.9h5.3L602.6,694.3L602.6,694.3z"
		/>
	<polygon class="st1" points="97.4,5.7 345.2,5.7 345.2,4.9 96.6,4.9 96.6,695.1 349.1,695.1 349.1,694.3 97.4,694.3 	"/>
	<rect x="345.2" y="4.9" class="st1" width="4" height="0.9"/>
	<rect x="349.1" y="4.9" class="st1" width="248.1" height="0.9"/>
</g>
<g id="isfotbet" class="st0">
	<path class="st1" d="M314.3,293.3v401.3h71.3V293.3c-11.3,4.6-22.1,4.6-35.9,4.6C336.4,297.4,323.1,295.3,314.3,293.3z"/>
	<path class="st1" d="M452.6,70c-5.1-11.3-13.9-22.1-22.6-28.7c-22-20-49.2-31.3-80-31.3c-28.7,0-55.9,11.3-78,28.7
		c-8.7,6.7-18,18-24.6,31.3s-11.3,31.3-11.3,53.4s4.6,40,11.3,53.4s15.4,24.6,24.6,31.3c22.1,20,49.3,28.7,78,28.7
		c31.3,0,55.9-11.3,78-28.7c8.7-6.7,18-18,24.6-31.3s11.3-31.3,11.3-53.4S459.3,83.4,452.6,70z M394.1,168.1
		c-11.3,11.3-26.7,15.4-42.6,15.4s-28.7-4.6-40-15.4c-11.3-11.3-18-24.6-18-42.6s6.7-33.4,18-42.6c11.3-11.3,24.6-15.4,40-15.4
		s28.7,4.6,42.6,15.4c11.3,11.3,18,24.6,18,42.6C409.5,143.4,405.4,157.3,394.1,168.1z"/>
</g>
<path id="CQ9" class="st4" d="M693.8,327.5c-0.2-0.3-0.4-0.5-0.6-0.7c-3.9-40.2-41-81.1-84.2-93.5c-22.4-4.9-41-4.8-56.1-2.2
	c-1.6,0.5-3.2,0.7-4.9,0.9c-3.1,0.7-6.1,1.4-8.9,2.3c-40.1,13.1-69,50.7-67,88.5c-1.2,38.2,28.4,75.9,68.9,88
	c32.8,9.8,80.6,8.6,120.3-35.2c-3.5,14.7-10.4,25.3-19,34.7c-19.6,21.2-44.2,30.5-72.9,29.9c-42.3-0.9-79.5-17.1-115-38.4
	c-5.1-3.1-4.5-6-2.8-10.5c8.1-21.6,9.8-43.7,4.6-66.3l0,0c-9.9-42-33.6-70.5-70.5-86.2c-26.8-10.5-50.2-11.5-69.4-8.3
	c-3,1.3-6.5,1.3-9.6,2.1c-46,11.7-85.3,55.8-88,98.8c-5.3,21.3-1.2,41.8,6.3,61.7c2.5,6.6,1.7,9.8-4.5,13.6
	c-24.4,14.8-48.7,29.1-77.9,32.4c-69.9,8-119.2-45.5-104.5-114c1.5-3.6,2.8-7.3,4.4-10.9c18-42.7,66.9-65.1,110.8-50.9
	c20.6,6.7,36.5,19.9,49.4,37.8c3.9-9,6.7-17.5,12.1-24.6c3.4-4.6,1.6-7.6-1.8-11c-7.6-7.6-16.1-14-25.2-19.8c-3-1.9-6.1-3.6-9.2-5
	c-1.2-0.4-2.4-1-3.7-1.6c-7.8-3.2-15.9-5.4-23.9-8c-17.1-3.3-29.7-1-29.7-1s-23.7-0.5-49.6,11.3c0,0-0.1,0-0.1,0.1
	c-19.9,10.7-35.8,24.4-47.1,41.8c-6.9,11.5-11.5,22.6-14.6,32.9c-0.4,1.5-0.8,3.1-1.2,4.6l0,0c-0.1,0.1-0.1,0.2-0.2,0.2
	c-4.8,19-4.3,35.2-2.8,46.2c1.5,2,0.9,4.9,1.4,7.2c13.6,59.2,62.6,97.5,123.4,96.4c38.4-0.7,71.7-15.9,102.7-37
	c8-5.5,12.4-5.6,19.8,1.8c48.3,48.7,127.4,46.7,173.8-4.2c5.4-5.9,8.7-5.7,15-1.9c34.8,21.2,71.8,35.7,112.8,40.6
	c59.5,7.2,111.7-23.1,133.2-76.6C697.1,367.9,696.4,344.1,693.8,327.5z M584,384.9c-21.4,1.8-41.2-2.5-58.3-16.1
	c-14.8-11.7-22.4-27.4-24.2-46c2.1-40.9,37.7-64.6,75.1-63.9c35.4,0.7,70.9,24.5,71.2,66C644.2,357.4,618,382.1,584,384.9z
	 M425,374.8c-2,6.9-3.8,8.1-10.7,4.6c-41.6-21.3-84.7-26.1-129.2-9.6c-12.1,4.5-12.3,4.8-5.3,15.7c9.2,14.5,9.7,14.5,26.1,9.9
	c34.9-9.8,67.6-3.4,99,13.6c-21.4,27.9-64.5,38.3-99.2,25.3c-41-15.3-64-58.6-58.3-98.6c10.2-50,48.6-76.7,90.1-77.2
	c36.5-0.4,70.8,22.8,84.3,56.6c1.3,3.3,2.6,6.6,3.9,9.9l0,0C429.1,341.7,429.9,358.1,425,374.8z"/>
<path id="MG" class="st4" d="M19.3,446.3C-42.3,270.1,84.9,3.7,357.6,5.5c237.8,8,342.3,215.1,338.3,340.5
	c4,155.7-116.9,348.5-344.5,348.5c-162,4-270.4-118.7-286.9-155.7c8-8,159.8-274.9,159.8-274.9S206,581.6,314.4,581.6
	c108.4,2.2,180.3-235.6,196.8-248.1c6.2,10.3,49.1,118.7,90.1,141.5c10.3,6.2,18.3-8,12.5-16.5c-12.5-10.3-59.4-90.1-67.8-217.3
	c-2.2-26.8-45.1-45.1-65.6-4c-18.3,42.8-96.4,229.4-162,276.7c-16.5-20.5-53.1-129-28.6-411.9c-4-41.1-53.1-32.6-61.6-8
	C217.9,130.4,84.9,372.3,19.3,446.3z"/>
<g id="RTG" class="st0">
	<path class="st1" d="M340.9,56.4c2.1,19.1,5.4,38,10,56.7c5.5,22.9,13.1,45.1,22.7,66.6c10.3,23,23.1,44.2,40.9,62.1
		c8.3,8.3,17.1,16.2,25.6,24.2c16.2,15.3,34.2,28.2,54.7,37.1c13.1,5.7,15.4,3.9,15.6-10.6c0.1-13.9,2.1-27.7,3.2-41.5
		c1.8-21.4,3.8-42.8,5.6-64.2c1-12.1,2.2-24.2,3.1-36.4c1.4-20.5,3.7-40.9,5.5-61.3c1.2-13.1,1.4-26.2,3.4-39.3
		c2.5-16.5-3.1-29.8-17.5-37.8c-1.3-0.8-4.3-0.7-3.3-3.7l-40.6-0.1c-10.2,3-20.5,1-30.8,1.1h-28.3l-29.2,0.2
		c-8.7-0.5-17.5,1.8-26.1-1.3h-2.9c-1,4-4.4,3.1-6.9,2.8c-5.9-0.7-8.5,1.4-7.8,7.3C338.1,31.2,339.7,43.8,340.9,56.4z"/>
	<path class="st1" d="M278.7,607.3c0.2-1.9,0.2-3.9,0.1-5.8c-2.9-22.9-5.4-45.8-10-68.4c-6.8-33.8-16.1-66.9-30.7-98.2
		c-13.9-30.3-34.4-57-60.1-78.2c-19-15.3-39.5-28.7-61.2-39.9c-8-4.2-9.8-2.7-10.2,6.6c-0.3,8.8-0.7,17.7-1.5,26.5
		c-1.7,18.7-4.4,37.4-5.4,56.1c-0.8,14.3-2.6,28.5-3.3,42.8c-0.9,18.8-3.8,37.4-5.5,56.1c-1.3,14-1.6,28.1-3.2,42.1
		c-0.5,4.2,0.2,9-2.6,12.9v24.6c1,1.3,1.9,2.6,2.6,4.1c4.1,11.1,14.5,18.7,26.3,19.3c51.8,0,103.6-0.1,155.4-0.2
		C272.5,607.7,275.6,607.4,278.7,607.3z"/>
	<path class="st1" d="M592.2,110.7c-3-1.1-3.6-1.3-3.9,2.4c-1,14-2.9,28.1-3.8,42c-0.9,13.9-2.2,27.6-3.4,41.4
		c-1.8,20.2-3.7,40.3-5.3,60.5c-1.1,13.1-2.5,26.1-3.3,39.3c-1.2,20.2-3.7,40.4-5.4,60.6c-1.1,13.1-2.4,26.2-3.2,39.3
		c-1.3,19.7-3.7,39.4-5.5,59.1c-1.2,13.1-2,26.3-3.1,39.3c-1.2,15-2.9,29.9-4.1,44.9c-1,12.9-2.4,25.7-3.2,38.5
		c-1.2,18.7-5.1,37.4-5.1,56.1c0,18-17.6,31.6-32.8,31.6c-72.4,0-144.7-0.1-217.1-0.1H186.6c-8.4,0-8.7,0.3-6,8.6
		c2.7,8.2,8.9,13.2,15.9,17.5l354.7-0.1c5.9-4.6,12.3-8.5,15.6-16.1c3-6.9,2.8-13.9,3.4-21.1c1.7-20.5,3.8-40.9,5.6-61.3
		c1.1-12.9,1.9-25.7,3-38.6c1.8-20.4,3.8-40.9,5.6-61.3c1.1-12.9,2-25.7,3.1-38.6c1.8-20.5,3.8-40.9,5.6-61.3
		c1.1-12.9,2-25.7,3.1-38.6c1.8-20.4,3.8-40.9,5.6-61.3c1.1-12.9,2.4-25.7,3.2-38.6c1.3-20.5,3.6-40.9,5.6-61.3
		c1.3-14,2.9-28,4.1-42C616.2,133.7,612.6,118.3,592.2,110.7z"/>
	<path class="st1" d="M115.2,304c26.3-8.1,49.3-22.3,71.6-37.9c24.6-17.3,45.8-38.9,62.8-63.7c21.7-31.6,40-65.5,54.4-101.1
		c11.7-28.5,22.1-57.4,24.6-88.5c-0.5-1.6-2.2-2.7-3.9-2.4c-9.8,0.3-19.7,0.3-29.6,0.5L265.9,11L237,11.5c-9.7,2.7-19.6,0.9-29.4,1
		c-9.9-0.6-19.9,1.4-29.7-1c-4.8,2.2-10,1.4-14.9,1.2c-14-0.5-27.7,10.7-30.3,23.9c-2.1,10.6-2.3,21.3-3.1,32
		c-1.4,18.7-3.9,37.4-5.6,56.1c-1.3,14-1.8,28.1-3,42.1c-2.2,24.4-4.9,48.8-7,73.3c-1.8,19.7-2.6,39.5-4.6,59.2
		C108.6,305.8,109.7,305.7,115.2,304z"/>
	<path class="st1" d="M503.4,313.6c-16,5.1-31.2,12.5-45.1,22c-13.4,8.8-26.8,18-38.8,29.1c-15.1,13.7-30.2,27.4-42.6,43.4
		c-24.4,31.7-45.7,65.4-61.6,102.3c-7.7,18.1-14.8,36.5-19.3,55.8c-3,12.9-6.6,25.7-9.9,38.5c0.2,5.1,4.2,2.9,6.3,2.9
		c47.8,0.1,95.7,0.1,143.5,0.1c6.4,0,13,0.2,19.5,0.2c15.2-0.9,25.4-9.6,29.1-24c2-7.9,1.7-16.1,2.6-24.1
		c1.5-13.5,1.9-27.2,3.2-40.8c2.2-24.5,5-48.9,7-73.4c1.4-16.4,2.8-32.8,4.3-49.2c2.5-26.4,4-52.9,6.2-79.4
		C508.2,312.5,507.7,312.3,503.4,313.6z"/>
	<path class="st1" d="M501.9,651.5c9.9,0.5,23.3-13.3,24.4-23c1.7-15.2,3.1-30.4,4.4-45.6c1.1-12.9,1.9-25.7,3.1-38.6
		c1.8-20.4,3.8-40.9,5.6-61.3c1.1-12.9,1.9-25.7,3.1-38.6c1.8-20.2,3.8-40.3,5.6-60.6c1.2-13.1,1.9-26.3,3.1-39.3
		c2.2-24.7,4.8-49.4,7-74.1c1.7-19.3,2.6-38.6,4.5-57.9c2.8-27.6,4.9-55.2,7.5-82.7c0.6-7,0.6-14.2,2.2-21.3
		c3.5-16.4-5.6-32.8-21.4-38.5c-3.1-1.1-5.9-1.5-5.8,3.2c0.4,14.4-2.6,28.6-3,42.9c-0.3,11.9-1.8,23.8-2.9,35.7
		c-1.3,14.2-3.1,28.4-4.1,42.7c-0.9,13.6-2.2,27.2-3.4,40.7c-1.7,20.9-3.8,41.8-5.5,62.7c-1,12.4-1.9,24.7-3.2,37.1
		c-2,20.6-3.8,41.3-5.5,61.9c-1.1,12.9-2.4,25.7-3.2,38.6c-1.2,19-4.2,37.9-5.3,56.9c-0.9,14.1-2.6,28.1-3.3,42.2
		c-1,18.8-5,37.4-5.1,56.2c-0.2,17.5-13.2,31.1-27.7,33.2c-2.6,1.8-5.6,0.9-8.4,0.9c-107,0-214,0-320.9,0.1c-2.6,0-6.7-2.2-7.1,3.2
		c3.3,12.3,10.5,20.6,23.3,23.2l340.4-0.1C500.9,651.2,501.4,651.3,501.9,651.5z"/>
</g>
<path id="SP" class="st4" d="M213.5,235.4c0-18,0-33.7,0-49.3c0-4.2,0-7.6-4.6-10.2c-20.9-11.7-41.6-23.9-63.7-36.7v192.5
	c20.5-11.7,40.2-22.8,59.8-34.1c66-38.2,132-76.4,197.9-114.8c6.2-3.6,11-3.5,17.4,0.2c69,40.3,137.7,81.4,207.7,119.8
	c36.5,20.1,39,73.2,0.6,94.3c-51.5,28.2-102,58.4-152.8,87.7c-103.8,60-207.5,120-311.3,180c-13.1,7.5-26.6,14.4-39.2,22.6
	C90.7,710,45,686.1,44,642.6c-0.6-24.3,0-48.6-0.1-72.8c0-4.4,0.8-7.9,5.1-10.3c31.1-17.8,62.1-35.7,95-54.8v57.1L510.6,350
	c-31.2-17.9-61-34.8-90.4-52.2c-6.1-3.6-10.5-4-16.6-0.5C311.2,351,218.8,404.6,126.3,458c-23.3,13.5-46.6,26.9-70,40.3
	c-12.5,7.1-12.6,6.9-12.6-7.1c0-25.5,0-51,0-76.6c0-116.5,0-232.9,0-349.4c0-10.7,0.8-21.3,5.6-31.1C62.9,6.5,95.2-4.3,121.9,10.9
	C182.8,45.6,243.4,81.1,304.2,116c6.1,3.5,8.7,7.4,8.2,14.6c-0.6,9.4-1.2,19.1,0.1,28.4c2,14.5-3.4,22.5-16.5,29.3
	C268.6,202.5,242.2,218.8,213.5,235.4z"/>
<g id="RT" class="st0">
	<path class="st1" d="M4.2,458.1c0-1.1,0-2.2,0-3.2c2.2-17.7,3.2-36,6.5-53.8c2.2-14,7-27.4,10.2-40.9c5.9,38.2,7.5,75.8,14,112.4
		c7,40.9,25.8,76.4,61.3,101.1c3.8,2.7,9.7,2.7,14.5,4.3c-1.1-4.8-1.1-10.8-3.2-15.1c-22.6-42.5-39.8-87.1-50-134.4
		c-1.1-3.8-1.1-8.1-1.6-14c10.8,2.7,19.4,5.4,31.7,8.6c-10.2-33.9-19.4-64-29-93.6c22.6,26.3,36.6,56.5,48.4,88.2
		c1.1,2.2,0,5.9-1.6,8.6c-13.4,19.4-5.4,36,3.8,53.8c10.8,19.9,20.4,40.3,30.7,60.2c1.6,3.8,4.8,7,8.1,12.4
		c5.9-22.6,1.1-48.4-11.3-71.5c-8.6-16.7-8.1-43,3.8-50.5c12.4-8.1,15.6-17.2,10.2-30.1c21-12.4,41.4-24.2,61.8-36
		c-1.1-1.6-1.6-3.2-2.7-4.8c-18.3-4.3-35,0.5-51.1,10.2c-23.1,14-39.3,6.5-43.6-20.4c10.2-9.1,31.7-2.2,36-23.1
		c-37.6-5.9-40.9-8.1-39.8-27.4c7.5-0.5,15.6-1.6,26.3-2.7c-37.6-41.9-50-89.3-61.3-140.9c-7,9.7-12.4,16.7-17.7,24.2
		C32.7,173.1,25.2,165,26.8,143c7.5,3.2,14.5,7,21.5,10.2c1.1-1.1,2.2-1.6,3.2-2.7c-4.3-5.9-8.6-12.4-13.4-17.7
		C23.1,117.7,12.8,100,8.5,79c-8-38.2-1.6-53.8,26.4-64c1.1,0,2.2,0,3.2,0c23.1,9.7,45.7,20.4,69.4,29
		c45.7,16.1,92.5,25.8,140.9,16.7c53.2-10.2,107-12.9,161.3-5.9c23.7,2.7,46.8,8.1,70.4,9.1c64.5,2.2,123.7-19.9,180.1-48.4
		c4.3,0,8.1,0,12.4,0c16.1,7,22,19.4,22.6,37.1c0.5,31.7-9.1,58.1-31.7,80.7c-4.8,4.8-8.1,11.3-12.4,16.7c1.1,1.1,2.2,1.6,2.7,2.7
		c6.5-3.2,13.4-5.9,20.4-9.1c1.1,22.6-8.1,32.3-32.3,36c-5.4-7.5-10.2-14.5-16.7-23.7c-1.6,8.6-2.7,13.4-3.8,18.3
		c-9.7,38.7-21,76.9-45.7,109.7c-2.7,3.2-3.2,7.5-5.4,11.3c4.3,1.6,8.6,3.2,13.4,3.8c2.7,0.5,5.9-0.5,11.3-1.6
		c-2.2,7-2.7,15.6-6.5,17.2c-11.3,5.9-23.7,9.7-39.3,15.6c6.5,4.3,11.8,8.6,17.7,11.3c6.5,3.2,14,4.3,20.4,6.5
		c-5.4,28-19.9,33.9-42.5,22c-11.8-6.5-25.3-9.7-38.2-12.9c-4.8-1.1-10.2,1.6-15.6,2.7c0,1.6-0.5,3.2-0.5,4.8
		c15.1,8.6,30.1,17.2,45.7,26.3c8.6,4.8,19.4,8.1,12.4,22.6c-1.1,2.2,2.7,8.6,5.9,11.3c18.3,16.1,19.9,35.5,10.8,58.1
		c-7.5,18.3-10.8,38.7-15.1,58.1c-0.5,3.2,1.6,7,2.7,12.9c3.8-4.3,5.9-5.9,6.5-8.1c6.5-25.8,19.4-48.4,34.4-70.4
		c10.2-15.1,14.5-32.3,1.1-49.5c-1.6-2.2-2.2-5.9-1.1-8.6c15.1-31.7,30.1-63.5,45.2-95.2c1.6,0.5,3.2,1.6,4.8,2.2
		c-9.7,31.7-19.9,63.5-30.7,98.9c13.4-3.8,22-6.5,32.3-9.7C635,472.6,614,525.3,585,578.5c19.9-1.1,28.5-10.8,37.6-19.9
		c28.5-29.6,40.9-66.7,45.7-106.5c3.8-29.6,5.4-59.7,8.6-94.6c4.3,10.8,8.1,17.7,9.1,25.3c3.8,18.3,6.5,36.6,9.7,54.8
		c0,14,0,28.5,0,42.5c-3.8,11.8-4.8,25.3-11.3,35.5c-24.7,40.9-51.1,81.2-77.4,121.5c-15.1-12.9-16.7-12.9-24.7,3.8
		c-3.8,7.5-7,14.5-10.8,21.5c-3.8,7.5-8.1,15.1-12.4,22.6c-1.6-0.5-3.2-1.1-4.8-1.6c-0.5-4.8-1.1-9.7-1.1-14c0-14,0.5-28.5-1.1-42.5
		c-0.5-4.8-7-11.8-11.3-12.4c-4.3-0.5-11.3,5.4-14,9.7s-1.6,10.8-1.6,16.1c0,8.6,0,17.7,0,29.6c-27.4-18.3-51.1-33.9-82.3-26.3
		c0-1.6,0.5-3.2,0.5-5.4c19.9,0,39.8,0,61.3,0c-4.3-17.2-8.6-30.7-10.8-44.6c-4.8-33.3-7.5-66.1,27.4-87.6c1.6-1.1,2.7-2.7,3.8-4.8
		c20.4-42.5-1.1-98.4-45.7-116.1c-5.9,7.5-12.4,15.6-18.8,23.1c-6.5,8.1-13.4,15.6-19.9,23.7c0.5,1.1,1.1,2.2,1.6,3.8
		c9.7-1.6,19.9-1.6,28.5-4.8c9.7-3.8,17.7-10.8,27.4-17.2c-4.8,26.3-28,31.7-46.8,43c17.7,0,32.8,0,48.9,0
		c-14,22.6-44.6,9.7-62.4,26.9c21,14,43.6,5.9,66.1,4.8c-16.1,23.7-39.3,33.3-61.8,25.8c-23.7-7.5-46.8-16.1-69.4-25.8
		c-5.9-2.7-12.9-10.2-13.4-16.1c-1.1-32.8-3.2-39.3,25.8-47.3c5.9-1.6,11.3-4.8,16.1-8.1c33.9-20.4,43.6-40.9,37.1-78.5
		c-4.3-25.8,8.6-50,31.7-59.7c4.8-2.2,9.1-3.8,14-5.4c44.6-17.2,71.5-49.5,81.7-95.7c1.6-7,0-15.1,0-23.7c-2.7,2.2-3.2,2.2-3.2,2.7
		c-1.1,2.2-2.7,4.3-3.2,7c-6.5,25.3-21,35.5-48.4,34.4c-30.1-1.6-55.4,13.4-69.4,44.1c-7,15.1-18.3,26.9-33.9,35.5
		c0-10.8,3.8-23.1-0.5-27.4c-9.7-10.8-3.8-16.1,2.2-23.1c10.8-11.8,21.5-23.7,32.8-36c-7.5-4.3-14-8.6-20.4-12.4
		c0.5-1.1,1.1-2.2,1.1-3.2c18.3,0,36.6,0,54.8,0c0-0.5,0-1.1,0.5-2.2c-16.7-5.9-33.9-12.4-53.2-19.4c34.4-16.7,67.8-9.7,100-14.5
		c-36.6-15.6-77.4-18.3-111.3-41.4c23.1,0,46.2,0,70.4,0c-52.4-47-217.4-45.4-266.9-1.8c24.7,0,48.4,0,71.5,0
		c0.5,1.6,1.1,3.8,1.1,5.4c-38.2,12.4-76.4,23.7-115.1,35.5c0,1.6,0,2.7,0,4.3c16.1,0,32.8-1.1,48.9,0s32.3,4.3,48.4,7
		c0,2.2,0,3.8,0,5.9c-17.2,5.9-33.9,12.4-51.1,18.3c0,1.1,0,2.2,0.5,3.2c18.8,0,37.1,0,55.9,0c0,1.1,0.5,2.2,0.5,3.2
		c-6.5,3.8-13.4,7.5-21,11.8c11.8,12.4,23.1,23.7,33.3,36c3.8,4.3,8.6,14,7.5,15.1c-11.8,11.3-1.6,23.7-3.8,40.3
		c-11.8-12.9-24.7-22-30.7-34.4c-18.3-38.2-48.4-52.2-88.7-50.5c-14.5,0.5-24.2-5.9-29.6-18.8c-3.2-8.1-7-15.6-12.4-26.9
		c-5.4,51.1,30.1,102.7,79.6,121.5c9.7,3.8,19.9,7.5,29,12.4c4.3,2.2,9.7,6.5,11.3,11.3c5.4,16.7,12.9,33.3,5.9,51.6
		c-5.4,15.6-0.5,28.5,8.1,41.4c14.5,19.9,33.3,33.3,57,40.3c11.8,3.8,17.7,10.2,17.2,23.1c-0.5,5.9-0.5,12.4,0,18.3
		c0.5,10.2-4.3,16.1-13.4,19.4c-22.6,8.1-45.2,17.2-68.3,24.7c-24.7,8.1-48.9-2.7-62.9-26.3c22.6,1.1,44.6,10.2,66.7-4.8
		c-19.4-15.1-49.5-2.7-63.5-26.9c15.6,0,31.2,0,46.8,0c-40.9-29-40.9-29-42.5-42.5c15.6,14.5,33.3,23.1,57,18.8
		c-14.5-17.2-27.4-32.8-40.3-47.9c-41.4,21.5-58.6,58.1-48.4,101.6c1.6,6.5,2.7,16.1,7.5,18.8c31.7,21.5,33.9,51.6,28,85
		c-2.7,15.6-7,30.7-10.8,47.9c21,0,40.9-8.6,59.1,3.8c-30.7-5.4-54.8,10.2-81.7,25.8c0-14,0-25.3,0-36c0-9.7-1.1-19.4-13.4-19.4
		c-14-0.5-14,10.2-14,19.9c0,16.7,0,32.8,0,49.5c-1.1,0.5-2.7,1.1-3.8,1.6c-2.7-3.2-5.9-5.9-7.5-9.1c-5.9-11.3-11.3-22.6-17.2-33.9
		c-8.1-16.7-8.6-16.7-25.3-5.9c-17.2-25.8-33.9-51.1-51.1-76.9c-18.8-28.5-39.8-56.5-36-94.1C6.4,461.8,4.8,459.7,4.2,458.1z
		 M188.1,74.7c-4.8-1.1-9.1-3.2-14-3.8C151,66.1,127.9,59.6,104.8,58c-23.7-1.6-36,12.4-33.9,36c1.1,12.4,5.9,24.2,10.2,36
		c5.9,16.1,12.9,31.7,20.4,46.8c11.8,24.2,23.1,49.5,37.1,72.6c10.8,17.7,28,29.6,47.9,37.1c-55.9-52.2-76.9-117.8-79-192.5
		c10.2,2.2,17.7,3.8,25.3,5.4c0-0.5,0.5-1.6,0.5-2.2c-13.4-6.5-27.4-13.4-43.6-21C125.2,62.9,156.4,86,188.1,74.7z M594.1,94.6
		c-2.2,74.2-23.1,138.7-78.5,189.8c7.5-2.7,14.5-6.5,20.4-11.3c24.2-18.3,39.8-42.5,51.6-69.9c11.3-26.3,22.6-52.7,33.9-79
		c3.2-8.1,5.9-17.2,7.5-25.8c3.8-20.4-6.5-35-26.3-38.7c-31.2-5.9-58.6,10.2-88.2,17.2c16.1,1.6,31.7,0,47.3-2.7
		c22.6-4.3,36.6-3.8,47.9,3.2c-14,6.5-28,13.4-41.9,19.9c0.5,1.1,0.5,1.6,1.1,2.7C576.4,98.3,583.9,96.7,594.1,94.6z"/>
	<path class="st1" d="M352.2,628.5c-9.7,4.8-17.7,11.3-26.3,11.3c-15.1,0-30.7-2.7-45.7-5.9c-14-3.2-23.7-10.2-20.4-27.4
		c1.6-9.1-4.3-14-12.9-10.2c-11.3,5.4-21.5,11.8-33.9,19.4c3.2-8.6,5.9-17.7,10.2-25.8c15.6-26.9,39.8-43,69.4-49.5
		c45.2-10.2,90.3-11.8,133.9,5.9c31.2,12.4,54.3,33.3,61.3,67.8c0.5,1.1,0,2.7,0,3.2c-9.1-6.5-17.7-14.5-27.4-19.9
		c-12.9-6.5-20.4-1.6-18.8,12.4c1.6,13.4-4.3,19.9-15.6,23.1c-11.8,3.2-23.1,7.5-35,9.1C374.7,644.1,359.7,642,352.2,628.5z"/>
	<path class="st1" d="M286.5,346.2c10.8,26.9,32.8,26.3,52.2,26.3c25.8,0,55.4,7.5,74.2-27.4c3.2,8.1,7.5,14.5,7,19.9
		c-0.5,4.8-6.5,11.8-11.3,13.4c-10.8,3.2-22.6,5.4-33.9,5.4c-26.3-0.5-52.2-2.2-78.5-4.8c-5.4-0.5-13.4-7-15.1-11.8
		C280.1,360.8,284.9,353.2,286.5,346.2z"/>
	<path class="st1" d="M502.2,236c-1.1,17.2-9.7,29.6-18.8,26.9c-7-2.2-12.4-10.8-18.3-16.7c10.2-6.5,19.9-12.9,30.1-18.8
		C495.7,226.9,501.1,234.4,502.2,236z"/>
	<path class="st1" d="M200,223.6c12.4,5.9,22.6,9.7,31.7,16.1c2.7,1.6,2.2,12.9,0,15.1c-5.4,3.8-15.1,8.1-19.9,6.5
		C196.7,254.8,198.4,241.4,200,223.6z"/>
</g>
<g id="spadegaming" class="st0">
	<path class="st1" d="M170.5,470.1c0.1,0.2,0.3,0.3,0.5,0.4c0.5,1.4,1.8,1.9,3,2.4c9.3,4.2,19.1,6.7,29.3,7.6
		c29.2,2.7,57.7-1.2,85.8-9.3c8.5-2.4,17.1-4.4,25.6-6.6c2.7-0.7,4.6-0.3,4.8,3.1c0.5,7,1.1,14.1,1.9,21.1c0.9,7.8,1,15.8,2.8,23.5
		v0.1c-0.7,4.6-0.5,9.1,0.1,13.7c-0.1,0.2-0.2,0.5-0.1,0.7c-0.3,1.1-0.6,2.2-0.8,3.4c-1.4,15.3-4.2,30.3-9.5,44.8
		c-17.1,47.6-50.2,79.6-96,99.5c-2.9,1.2-6.4,1.5-8.2,4.7c-0.6,0-1.2,0-1.8,0c-0.1-0.3-0.3-0.4-0.5-0.3c-0.7-0.2-0.9,0-0.7,0.7
		c-3.4-0.4-6.2,1.5-9.3,2.4c-15.2,4-30.5,7.7-46.1,9.7c-14.4,1.8-28.7,2.9-43.1,2.3c-2.4-0.1-4.3-1.1-4-3.6
		c1.1-7.6,0.3-15.3,0.7-22.9c0.1-2.7,1.4-4,4.1-4.1c4-0.2,7.9-0.5,11.9-0.6c20.1-0.7,39.8-3.5,59.3-8.5c13.5-3.4,26.2-8.5,38.5-14.8
		c17.2-8.8,32.3-20.5,44.3-35.7c12.2-15.4,20.8-32.7,25.2-52c3.3-14.2,5.6-28.6,3.4-43.3c-0.5-3.6-1.9-4.8-5.6-3.9
		c-8.2,1.9-16.3,3.8-24.6,5c-26.2,3.7-52.4,5.1-78.5-0.8c-13.9-3.2-27.1-8.3-38.1-17.5c-20.9-17.5-32.4-40.7-38.8-66.7
		c-0.5-2.1-0.5-4.4-2.2-6.1c-0.1-1.1-0.2-2.2-0.2-3.4c0.5-1.8,0.1-3.5-0.2-5.2c-2.8-17.2-2.4-34.4-0.2-51.7
		c0.8-6.4,2.8-12.6,2.5-19.1c0.1-0.2,0.2-0.4,0.1-0.7c1.6-1.2,1.6-3.1,2-4.7c4.1-17,10.4-33.3,18.2-49c11.7-23.7,26.9-45,44-65
		c1.3-1.5,3.2-2.7,2.6-5.2c1-1.1,1.9-2.2,2.9-3.3c1.6,0.2,2.4-0.9,3.3-1.8c9.3-9.8,18.6-19.6,28-29.4c0.8-0.8,1.4-1.5,1.1-2.7
		c2.2-1.9,4.6-3.7,6.2-6.2c2,0.7,3-0.9,4.1-1.9c4.3-3.8,8.5-7.7,12.7-11.6c17.6-16.1,35.7-31.5,54.4-46.2c19-15,38.5-29.4,58.3-43.4
		c5.9-4.1,6.8-4.3,12.4-0.2c15.5,11.2,31,22.3,46,34.1c17.1,13.4,34.1,26.9,50.5,41.2c18.6,16.2,36.9,32.8,53.9,50.8
		c3.5,3.7,6.5,7.9,11,10.6l0.1,0.1c0.8,2.3,2.5,3.9,4,5.6c10.8,12.1,21.1,24.5,30.4,37.8c3,4.3,5.1,9.3,9.3,12.6
		c0,0.2,0.1,0.4,0.3,0.6c2.3,5.6,4.7,11.2,9.5,15.2c4.1,9,9.4,17.5,12,27.1c0.3,5.1,3.1,9.4,4.6,14.1c7.3,23,11.4,46.5,10.8,70.7
		c-0.6,28.8-7.3,55.8-23,80.3c-2.1,3.3-5.4,5.8-6.3,9.9l-0.1,0.1c-1.7,0.2-2.3,1.7-3.3,2.7c-4.9,5.1-10,9.9-15.9,13.8
		c-18.5,12.1-39.2,16.4-60.9,17.5c-3,0.2-6.2-0.5-9,1.3c-1.2,0-2.4,0-3.6,0.1c-2.5-1.7-5.4-1.2-8.1-1.3c-17.4-0.8-34.6-3-51.4-7.3
		c-7.6-1.9-8.2-1.5-9.1,6.3c-0.5,4.3-0.6,8.5-0.3,12.8c0.6,7.8,1.7,15.5,3.2,23.1c2.9,14.7,8.3,28.6,15.8,41.4
		c10.2,17.4,24.1,31.4,40.9,42.5c4.1,2.7,7.9,6.2,13.2,6.7l0.3-0.2l-0.3,0.2c0.6,1.7,2,2,3.6,1.7c0,0,0,0,0-0.1
		c1,2.6,3.1,3.3,5.6,3.1h0.1c2.4,2.3,5.4,3.4,8.7,3.6l0,0c0.4,1.1,1.3,1.5,2.3,1.9c7.4,2.7,14.9,5.3,22.6,6.9
		c6.7,1.4,13.2,3.5,20.2,3.5c0.6,0.1,1.2,0.1,1.7,0.2c3.3,1.9,7.1,1.4,10.7,2c11.2,1.8,22.6,1.5,33.9,2.3c3.4,0.3,4.9,1.7,4.9,5.3
		c-0.1,6.6,0.1,13.2,0.3,19.9c0.1,4.1-1.5,5.9-5.7,5.8c-9.6-0.2-19.1-0.1-28.7-1c-25.4-2.5-50.3-7.4-74.2-16.7
		c-29.2-11.5-54.2-28.8-74.1-53.1c-18.3-22.4-29.6-48.2-34-76.9c-1-6.7-1.8-13.3-2.7-20c0-0.6-0.1-1.2-0.1-1.8
		c0.7-3.5,0.7-7.1,0-10.6c0-0.6,0.1-1.2,0.1-1.8c0.3-1,0.6-2,0.7-3c1.4-13.4,2.7-26.9,4-40.3c0.5-5.2,0.7-5.2,6-4.3
		c4.8,0.8,9,3.5,14,3.3c2.8,0.4,5.7,0.8,8.5,1.3c0.2,2.2,2.1,2.3,3.6,2.6c7.9,1.7,15.6,4.2,23.6,5.7c24.2,4.6,48.4,5.9,72.7,1.1
		c15.7-3.1,28.4-10.9,38-23.7c11.9-15.9,17.6-34.2,19.7-53.6c2.6-24.6-0.7-48.7-8.4-72.2c-7.8-23.8-19.6-45.6-34.2-65.9
		c-3.5-4.8-6.5-10.1-11.4-13.8l-0.2-0.1c0-2-1.5-3.1-2.6-4.5c-6.7-8.2-13.9-16-21-23.8c-15.5-17-32.3-32.6-49.5-47.8
		c-15.8-13.9-31.9-27.3-48.6-40.2c-12.1-9.4-24.2-18.7-36.7-27.5c-4.3-3-5.7-2.6-9.6,1.6l0,0c-1.7-0.2-2.7,1-3.9,1.8
		c-9,6.8-18.1,13.6-27,20.5c-2.4,1.9-5.9,2.9-6.7,6.4l0,0c-3.6,0.4-5.6,3-7.5,5.7c0,0-0.1,0.1,0,0.1c-0.6,0-0.8,0.3-0.8,0.8v0.2
		l-0.1-0.2c-3,0.9-5.7,2.3-6.9,5.5l0.1,0.2v-0.2c-0.3,0.2-0.7,0.5-1,0.7l-0.1,0.1c-0.6,0-0.8,0.2-0.9,0.8l0,0
		c-2.8,1.1-5.4,2.6-6.9,5.5l-0.1,0.1c-0.8,0.4-1.6,0.7-2.3,1.2c-15.3,12.6-30.2,25.7-44.4,39.5c-1.6,1.6-4,2.6-4.5,5.2l0,0
		c-0.6,0-0.9,0.3-1,0.8l0.1,0.2l-0.2-0.2c-2.1,0.8-3.7,2.1-4.4,4.4l-0.1,0.1c-0.5,0.1-0.8,0.4-0.8,1l0,0c-1.5,0-2.3,1.1-3.2,2.1
		c-8.2,8.7-16.7,17.2-24.4,26.4c-4.3,5.2-9.9,9.6-12.3,16.2l-0.2,0.3c-1.4,0-2,1.1-2.7,2c-7.9,10.4-15.7,20.9-21.7,32.5
		c-2.3,4.3-5.9,8.1-6.1,13.4c-0.2,0.1-0.3,0.3-0.3,0.5c-1.9,0.8-2.2,2.6-2.9,4.2c-4.8,10.3-8.9,20.9-11.9,31.8
		c-1.9,6.9-4.3,13.8-4.2,21.1c0,0.9-0.1,1.8-0.1,2.7c-1.7,2.1-1.5,4.7-1.8,7.1c-1.1,11.3-1.5,22.6-0.1,33.9
		c2.6,20.4,8.3,39.7,21.6,55.9C159.2,462.3,163.6,467.8,170.5,470.1z"/>
	<path class="st1" d="M80,490.6c-0.6-2.1-1.6-4.1-2.9-5.9c-0.1-4.4-2.2-7.8-5.1-10.9c-1.4-4.5-5.1-8.1-5.7-13
		c-0.2-5.5-2.7-10.3-5.1-15l0,0c0.6-2.1-0.3-4.1-0.8-6c-3.2-11.4-5.2-23-6-34.7c-1.8-24.7-0.7-49.3,4.8-73.7
		c5.5-24.2,13.6-47.4,25-69.5c2.6-5,6.1-9.7,7.2-15.5l-0.2-0.1l0.2,0.1c2.2-0.8,2.7-3,3.8-4.6c6-9,11.6-18.4,18-27.1
		c15.6-21,32.8-40.6,51.2-59.2c1.3-1.3,3.1-2.4,2.9-4.6c2.2-2.2,4.5-4.4,6.7-6.6c1.5,0.8,2.1-0.4,3-1.2
		c20.3-19.6,41.4-38.3,63.3-56.1c32.9-26.9,67-52.1,102.5-75.6c3.7-2.5,7-4.4,11.5-2.7l0,0c-0.1,1.5,1.2,1.9,2.1,2.5
		c24.2,16.2,48.2,32.7,71.2,50.8c16,12.6,32.2,25,47.7,38.1c2.6,2.2,4.6,5.4,8.3,6.2c0,0,0.1,0.2,0.2,0.2c0,0.5,0.3,0.7,0.8,0.6
		l0.2,0.1c0.2,0.2,0.5,0.5,0.7,0.7l0.1,0.2c0,0.6,0.2,0.8,0.8,0.9c0.3,0.3,0.6,0.6,0.9,0.9c4.7,4.8,9.5,9.5,15.1,13.2
		c0.3,0.3,0.6,0.5,0.9,0.8c0,0.6,0.3,0.9,0.9,0.9v0.1c0.1,1.3,1,2.1,1.9,2.8c11.1,9.6,20.9,20.5,31.5,30.5c5.2,4.9,9,11.1,15.1,15.1
		h0.1c0,0.6,0.3,0.8,0.8,0.9v0.1c0.3,0.3,0.5,0.6,0.8,0.9l0.1,0.1c0,0.5,0.3,0.8,0.8,0.8l0,0c0,1.9,1.6,2.7,2.6,3.9
		c3,3.4,6,6.8,8.8,10.3c5.5,6.6,10.4,13.6,16.6,19.6c0.1,0.2,0.2,0.3,0.4,0.4c-0.3,1.7,1,2.7,1.8,3.9c5.5,7.6,11,15.3,15.9,23.3
		c9,14.8,17.3,30,23.7,46.3c2.6,6.5,5.3,13,8,19.5c0,0.2,0,0.4,0.2,0.6c0.3,3.6,1.5,6.9,3.3,10c0.3,5.2,4,9.4,3.9,14.7
		c0,1.5-0.3,3,0.1,4.4c1.9,8.2,2.9,16.5,3.9,24.8c3.2,27,1.9,53.7-4.7,80c-6.7,26.4-18.2,50.5-35.9,71.5
		c-19.8,23.5-44.7,38.1-74.3,45.3c-3.7,0.9-7.6,1.6-10.9,3.9c-0.9-0.1-1.8-0.2-2.7-0.3c-1.1-0.6-2.3-0.5-3.5-0.3
		c-13.4,2.1-27,2.4-40.5,2.3c-0.7,0-1.5,0.1-2.2,0.2c-1.3,0.3-2.7,0.8-2.7,2.5c0,1.6,0.7,2.9,2.6,2.8c-0.3,1.6,0.4,2.7,1.5,3.8
		c-0.1,1.8,1.2,2.9,2.2,4.2c8.6,11.1,19.5,19.4,32.2,25.3c5.2,2.4,10.2,5.9,16.3,5.7c0.2,0.2,0.4,0.4,0.6,0.4
		c8.7,4.4,18,6.2,27.6,6.6h0.1c0.6,1,1.7,1.1,2.7,1.3c8.8,0.9,17.5,2.6,26.3,2.7c3.4,0.1,6.8,0.3,10.1,0.4c4,0.1,5.3,2.3,5.3,6
		c-0.1,6.2,0.1,12.4,0,18.5c0,5.4-0.8,6-6.2,6.1c-13,0.1-25.8-1.3-38.7-3c-22.5-3-44.1-8.8-64-19.9c-20.7-11.4-37.2-27.1-48.2-48.2
		c-7.2-13.8-11.4-28.6-13.4-44c-1-7.4-1-7.8,6.2-6.8c1.6,0.2,3.2,0.4,4.8,0.7c27.8,4.6,55.5,5.5,83.3-0.4
		c29.7-6.3,52.9-21.8,69.9-46.9c0.7-1.1,1.6-2.2,1.2-3.6l0,0c1.6-0.5,2.2-1.9,2.9-3.2c7.7-13.2,13.3-27.2,17-42
		c6.4-26.1,6.8-52.4,2.4-78.8c-4.4-26.7-13.2-51.8-25.6-75.7c-10.3-20-22.9-38.3-36.8-55.9c-12-15.2-25.1-29.5-38.9-43.2
		c-1.2-1.2-2.1-2.9-4.2-3c-8.9-10-19-18.7-28.9-27.7c-20.1-18.3-41.1-35.5-62.6-52.1c-15.1-11.7-30.3-23.2-46.1-33.9
		c-2.4-1.6-4.1-4.3-7.3-4.7c-0.4-2.8-3.2-3.2-4.9-4.7c-4.4-4.1-8.8-4.2-13.8-0.5c-9.1,6.7-18.5,13.1-27.7,19.6
		c-1.1,0.8-2.6,1.5-2.8,3.2l0,0c-2.5,0.1-4.2,1.3-5.3,3.6l0.2,0.2l-0.2-0.2c-5.7,2.3-10.1,6.2-14.2,10.5l0,0c-1.3-0.1-2.1,0.9-3,1.6
		c-21.3,15.8-41.6,32.9-61.5,50.5c-4,3.5-8.8,6.4-11.5,11.3l-0.1,0.1c-1,0.1-1.7,0.4-1.7,1.6l-0.1,0.2c-1.4-0.1-2.5,0.5-3.5,1.5
		c-14.3,14.3-29.1,28-42.4,43.3c-3.9,4.5-8.6,8.3-11.1,13.9l0,0c-1-0.1-1.5,0.7-2.1,1.3c-22.1,25.8-40.2,54-53.2,85.5
		c-10.3,25-16.5,50.9-18.1,77.8c-1.7,29.4,3.3,57.7,15.7,84.5c6.9,15,16.2,28.4,28.2,39.6c19.7,18.4,43.9,26.1,70.1,29
		c24.3,2.7,48.5,0.9,72.5-3.6c2.7-0.5,4.7-0.8,4.5,3c-1,14.2-4.6,27.8-10.1,40.9c-2.1,5.2-5.7,9.6-7.2,15.1l-0.2,0.2
		c-1.6,1.2-2.8,2.6-2.9,4.7l0,0c-1.3-0.1-1.7,1-2.3,1.8c-14.3,19.2-33,32.3-55,41.4c-18.5,7.7-37.9,11.7-57.7,13.8
		c-10.2,1.1-20.5,2-30.8,1.8c-3.8-0.1-4.9-1.5-4.8-5c0.1-6.5,0-13-0.1-19.4c0-6,0.7-6.9,6.9-7c10.9-0.2,21.7-0.7,32.5-2.2
		c19.1-2.7,37.5-7.5,54.5-16.8c4.1-2.3,9-4.3,11.5-9c0.2,0,0.4-0.2,0.5-0.4c10.1-5.1,16.5-13.6,21.7-23.2c0.8-1.4,0-2.7-1.6-3
		c-1.6-0.4-3.2-0.7-4.8-0.6c-12.4,0.1-24.6-0.3-36.9-2c-20.5-2.8-39.8-8.6-57.9-18.8c-5.1-2.8-9.5-6.8-15.1-8.7
		c-0.2-0.1-0.4-0.2-0.6-0.2c0.5-1.9-1-2.7-2.1-3.5c-5.9-4.1-9.8-10.1-15-14.9c-5.7-5.2-10-11.8-14-18.4
		C83.3,492,82.6,489.9,80,490.6z"/>
</g>
<g>
</g>
<path class="st3" d="M628.2,303.5l-38.5-22.2L176.8,42.8l-51.4-29.7c-16.6-9.6-37-9.6-53.6,0c-16.6,9.6-26.8,27.3-26.8,46.4v44.9
	v476.3v59.4c0,0.1,0,0.1,0,0.1c0,29.6,24,53.7,53.6,53.7c11.1,0,21.4-3.4,29.9-9.1l31-17.9l414.5-239.3l54.3-31.4
	c16.6-9.6,26.8-27.3,26.8-46.4C655.1,330.8,644.8,313.1,628.2,303.5z M525.1,356.7L130.9,584.3V584c0-1.9,0-3.6,0-5.1v-6V115.9v-0.3
	l11.3,6.6l394.5,227.8l0.1,0L525.1,356.7z"/>
</svg>
