<?xml version="1.0" encoding="utf-8"?>
<!-- Generator: Adobe Illustrator 16.0.0, SVG Export Plug-In . SVG Version: 6.00 Build 0)  -->
<!DOCTYPE svg PUBLIC "-//W3C//DTD SVG 1.1//EN" "http://www.w3.org/Graphics/SVG/1.1/DTD/svg11.dtd">
<svg version="1.1" id="Layer_1" xmlns="http://www.w3.org/2000/svg" xmlns:xlink="http://www.w3.org/1999/xlink" x="0px" y="0px"
	 width="180px" height="360px" viewBox="0 0 180 360" enable-background="new 0 0 180 360" xml:space="preserve">
<rect y="-12.5" display="none" fill="#594A42" width="182.5" height="376"/>
<g>
	<path fill="#FFFFFF" d="M90,10.8c14.033,0,26.35,4.7,36.95,14.1c4,3.2,7.7,8.117,11.1,14.75c3.4,6.4,5.2,14.6,5.4,24.6
		c-0.2,10.033-2,18.25-5.4,24.65s-7.2,11.3-11.4,14.7c-10.4,9-22.617,13.6-36.65,13.8c-13.8-0.2-26.017-4.8-36.65-13.8
		c-4-3.4-7.7-8.3-11.1-14.7c-3.6-6.4-5.5-14.617-5.7-24.65c0.2-10,2.1-18.3,5.7-24.9c3.4-6.434,7.2-11.35,11.4-14.75
		C64.083,15.6,76.2,11,90,10.8z M70.8,44.15c-5.4,4.8-8.1,11.5-8.1,20.1c0,8.4,2.7,15.017,8.1,19.85c5.4,4.8,11.8,7.2,19.2,7.2
		c7.4,0,13.917-2.4,19.55-7.2c5.4-5.033,8.1-11.65,8.1-19.85c0-8.6-2.7-15.3-8.1-20.1c-5.633-4.8-12.15-7.2-19.55-7.2
		C82.6,36.95,76.2,39.35,70.8,44.15z"/>
	<path fill="#FFFFFF" d="M105.65,141.75v186.5H72.9v-186.5h0.3c5,1.6,10.4,2.4,16.2,2.4C95,144.15,100.417,143.35,105.65,141.75z"/>
</g>
</svg>
