<svg xmlns="http://www.w3.org/2000/svg" viewBox="0 0 2057.21 946.23"><defs><style>.cls-1{fill:#fff;}</style></defs><title>PG Logo White</title><g id="Layer_2" data-name="Layer 2"><g id="Layer_1-2" data-name="Layer 1"><rect class="cls-1" x="95.26" y="95.79" width="84.11" height="84.11"/><rect class="cls-1" x="190.53" y="95.79" width="84.11" height="84.11"/><rect class="cls-1" x="285.79" y="95.79" width="84.11" height="84.11"/><rect class="cls-1" x="381.06" y="95.79" width="84.11" height="84.11"/><rect class="cls-1" x="476.32" y="95.79" width="84.11" height="84.11"/><rect class="cls-1" x="571.59" y="95.79" width="84.11" height="84.11"/><rect class="cls-1" x="666.85" y="95.79" width="84.11" height="84.11"/><rect class="cls-1" x="762.11" y="95.79" width="84.11" height="84.11"/><rect class="cls-1" x="95.24" width="84.11" height="84.11"/><rect class="cls-1" x="190.51" width="84.11" height="84.11"/><rect class="cls-1" x="285.77" width="84.11" height="84.11"/><rect class="cls-1" x="381.04" width="84.11" height="84.11"/><rect class="cls-1" x="476.31" width="84.11" height="84.11"/><rect class="cls-1" x="571.58" width="84.11" height="84.11"/><rect class="cls-1" x="666.85" width="84.11" height="84.11"/><rect class="cls-1" y="191.58" width="84.11" height="84.11"/><rect class="cls-1" x="95.24" y="191.58" width="84.11" height="84.11"/><rect class="cls-1" x="666.99" y="191.58" width="84.11" height="84.11"/><rect class="cls-1" x="761.96" y="191.58" width="84.11" height="84.11"/><rect class="cls-1" x="856.93" y="191.58" width="84.11" height="84.11"/><rect class="cls-1" y="287.37" width="84.11" height="84.11"/><rect class="cls-1" x="95.24" y="287.37" width="84.11" height="84.11"/><rect class="cls-1" x="762.11" y="287.37" width="84.11" height="84.11"/><rect class="cls-1" x="856.93" y="287.37" width="84.11" height="84.11"/><rect class="cls-1" y="383.16" width="84.11" height="84.11"/><rect class="cls-1" x="95.24" y="383.16" width="84.11" height="84.11"/><rect class="cls-1" x="762.11" y="383.16" width="84.11" height="84.11"/><rect class="cls-1" x="856.93" y="383.16" width="84.11" height="84.11"/><rect class="cls-1" y="478.96" width="84.11" height="84.11"/><rect class="cls-1" x="95.24" y="478.96" width="84.11" height="84.11"/><rect class="cls-1" x="666.99" y="478.96" width="84.11" height="84.11"/><rect class="cls-1" x="762.11" y="478.96" width="84.11" height="84.11"/><rect class="cls-1" x="856.93" y="478.96" width="84.11" height="84.11"/><rect class="cls-1" y="574.75" width="84.11" height="84.11"/><rect class="cls-1" x="95.24" y="574.75" width="84.11" height="84.11"/><rect class="cls-1" x="190.6" y="574.75" width="84.11" height="84.11"/><rect class="cls-1" x="285.9" y="574.75" width="84.11" height="84.11"/><rect class="cls-1" x="381.21" y="574.75" width="84.11" height="84.11"/><rect class="cls-1" x="476.51" y="574.75" width="84.11" height="84.11"/><rect class="cls-1" x="571.81" y="574.75" width="84.11" height="84.11"/><rect class="cls-1" x="666.99" y="574.75" width="84.11" height="84.11"/><rect class="cls-1" x="762.11" y="574.75" width="84.11" height="84.11"/><rect class="cls-1" y="670.54" width="84.11" height="84.11"/><rect class="cls-1" x="95.24" y="670.54" width="84.11" height="84.11"/><rect class="cls-1" x="190.6" y="670.54" width="84.11" height="84.11"/><rect class="cls-1" x="285.9" y="670.54" width="84.11" height="84.11"/><rect class="cls-1" x="381.21" y="670.54" width="84.11" height="84.11"/><rect class="cls-1" x="476.51" y="670.54" width="84.11" height="84.11"/><rect class="cls-1" y="766.33" width="84.11" height="84.11"/><rect class="cls-1" x="95.24" y="766.33" width="84.11" height="84.11"/><rect class="cls-1" y="862.12" width="84.11" height="84.11"/><rect class="cls-1" y="95.79" width="84.11" height="84.11"/><rect class="cls-1" x="762.11" width="84.11" height="84.11"/><rect class="cls-1" x="571.81" y="670.54" width="84.11" height="84.11"/><rect class="cls-1" x="95.24" y="862.12" width="84.11" height="84.11"/><rect class="cls-1" x="1211.41" y="95.79" width="84.11" height="84.11"/><rect class="cls-1" x="1306.71" y="95.79" width="84.11" height="84.11"/><rect class="cls-1" x="1402.07" y="95.79" width="84.11" height="84.11"/><rect class="cls-1" x="1497.37" y="95.79" width="84.11" height="84.11"/><rect class="cls-1" x="1592.53" y="95.79" width="84.11" height="84.11"/><rect class="cls-1" x="1687.8" y="95.79" width="84.11" height="84.11"/><rect class="cls-1" x="1782.97" y="95.79" width="84.11" height="84.11"/><rect class="cls-1" x="1878.08" y="95.79" width="84.11" height="84.11"/><rect class="cls-1" x="1402.07" width="84.11" height="84.11"/><rect class="cls-1" x="1497.37" width="84.11" height="84.11"/><rect class="cls-1" x="1592.53" width="84.11" height="84.11"/><rect class="cls-1" x="1687.8" width="84.11" height="84.11"/><rect class="cls-1" x="1782.97" width="84.11" height="84.11"/><rect class="cls-1" x="1211.41" y="191.58" width="84.11" height="84.11"/><rect class="cls-1" x="1306.71" y="191.58" width="84.11" height="84.11"/><rect class="cls-1" x="1782.97" y="191.58" width="84.11" height="84.11"/><rect class="cls-1" x="1878.08" y="191.58" width="84.11" height="84.11"/><rect class="cls-1" x="1116.17" y="287.37" width="84.11" height="84.11"/><rect class="cls-1" x="1211.41" y="287.37" width="84.11" height="84.11"/><rect class="cls-1" x="1116.17" y="383.16" width="84.11" height="84.11"/><rect class="cls-1" x="1211.41" y="383.16" width="84.11" height="84.11"/><rect class="cls-1" x="1592.53" y="383.16" width="84.11" height="84.11"/><rect class="cls-1" x="1687.8" y="383.16" width="84.11" height="84.11"/><rect class="cls-1" x="1782.97" y="383.16" width="84.11" height="84.11"/><rect class="cls-1" x="1878.08" y="383.16" width="84.11" height="84.11"/><rect class="cls-1" x="1116.17" y="478.96" width="84.11" height="84.11"/><rect class="cls-1" x="1211.41" y="478.96" width="84.11" height="84.11"/><rect class="cls-1" x="1592.53" y="478.96" width="84.11" height="84.11"/><rect class="cls-1" x="1687.8" y="478.96" width="84.11" height="84.11"/><rect class="cls-1" x="1782.97" y="478.96" width="84.11" height="84.11"/><rect class="cls-1" x="1878.08" y="478.96" width="84.11" height="84.11"/><rect class="cls-1" x="1973.1" y="478.96" width="84.11" height="84.11"/><rect class="cls-1" x="1116.17" y="574.75" width="84.11" height="84.11"/><rect class="cls-1" x="1211.41" y="574.75" width="84.11" height="84.11"/><rect class="cls-1" x="1878.08" y="574.75" width="84.11" height="84.11"/><rect class="cls-1" x="1973.1" y="574.75" width="84.11" height="84.11"/><rect class="cls-1" x="1116.17" y="670.54" width="84.11" height="84.11"/><rect class="cls-1" x="1211.41" y="670.54" width="84.11" height="84.11"/><rect class="cls-1" x="1306.71" y="670.54" width="84.11" height="84.11"/><rect class="cls-1" x="1782.97" y="670.54" width="84.11" height="84.11"/><rect class="cls-1" x="1878.08" y="670.54" width="84.11" height="84.11"/><rect class="cls-1" x="1973.1" y="670.54" width="84.11" height="84.11"/><rect class="cls-1" x="1306.71" y="766.33" width="84.11" height="84.11"/><rect class="cls-1" x="1402.07" y="766.33" width="84.11" height="84.11"/><rect class="cls-1" x="1497.37" y="766.33" width="84.11" height="84.11"/><rect class="cls-1" x="1592.53" y="766.33" width="84.11" height="84.11"/><rect class="cls-1" x="1687.8" y="766.33" width="84.11" height="84.11"/><rect class="cls-1" x="1782.97" y="766.33" width="84.11" height="84.11"/><rect class="cls-1" x="1878.08" y="766.33" width="84.11" height="84.11"/><rect class="cls-1" x="1306.71" y="862.12" width="84.11" height="84.11"/><rect class="cls-1" x="1402.07" y="862.12" width="84.11" height="84.11"/><rect class="cls-1" x="1497.37" y="862.12" width="84.11" height="84.11"/><rect class="cls-1" x="1592.53" y="862.12" width="84.11" height="84.11"/><rect class="cls-1" x="1687.8" y="862.12" width="84.11" height="84.11"/><rect class="cls-1" x="1306.71" width="84.11" height="84.11"/><rect class="cls-1" x="1116.17" y="191.58" width="84.11" height="84.11"/><rect class="cls-1" x="1973.1" y="383.16" width="84.11" height="84.11"/><rect class="cls-1" x="1211.41" y="766.33" width="84.11" height="84.11"/><rect class="cls-1" x="1782.97" y="862.12" width="84.11" height="84.11"/></g></g></svg>