<svg xmlns="http://www.w3.org/2000/svg" viewBox="0 0 466 665"><defs><style>.cls-1{fill:#fff;}</style></defs><title>PP White Logo SVG_1</title><g id="Layer_2" data-name="Layer 2"><g id="Layer_1-2" data-name="Layer 1"><g id="Layer_2-2" data-name="Layer 2"><g id="Layer_1-2-2" data-name="Layer 1-2"><path class="cls-1" d="M219.07,39.43c-55.25,41.77-45.65,105.81-45.65,105.81S138.68,55.1,93.6,0c-6.09,70.93,16.15,164.94,16.15,164.94S81.5,106.67,12.31,103.4C69.71,136.42,92,195.82,97,211.76a231.49,231.49,0,0,1,113.49-34.35C206,162.55,189.92,100,219.07,39.43Z"/><polygon class="cls-1" points="262.67 461 300.35 461 281.59 407.38 262.67 461"/><path class="cls-1" d="M105.09,400H84v38h21.09c14.9,0,21.59-7.2,21.59-18.92C126.69,407,120,400,105.09,400Z"/><path class="cls-1" d="M233,200C104.32,200,0,304.09,0,432.5S104.32,665,233,665,466,560.91,466,432.5,361.68,200,233,200ZM105.1,454H84v46H65V385h40.1c27.57,0,41.1,15.71,41.1,34.58C146.2,436.12,135.34,454,105.1,454ZM218,500H160V385h19V485h39Zm45.69-242c77-4.78,118.17,88.74,40.06,93.6C223.89,356.57,191.46,262.5,263.69,258Zm50.86,242-8.45-24H256.92l-8.45,24H229.09l41.5-116h22l41.5,116ZM373,458.3V500H354V458.3L315.5,385h21.17l26.83,56.42L390.33,385h21Z"/></g></g></g></g></svg>